# xmcd
#
# Track frame offsets:
#	150
#	13553
#	26882
#	40063
#	53090
#	65871
#	77777
#	90289
#	103891
#	116134
#	129380
#	141537
#	155281
#	167603
#	180190
#	191561
#	204645
#	217509
#	229832
#	240625
#	252506
#	265864
#
# Disc length: 3694 seconds
# Revision: 0
# Processed by: cddbd v1.5.2PL0 Copyright (c) Steve Scherf et al.
# Submitted via: dBpowerAMP V12.0
#
DISCID=2e0e6c16
DTITLE=BD Blues - 13 Memphis Minnie CD2 1937-1953
DYEAR=2008
DGENRE=Blues
TTITLE0=My Baby Don't Want Me No More 
TTITLE1=Please Don't Stop Him
TTITLE2=I've Been Treated Wrong
TTITLE3=Long As I Can Bee You Smile
TTITLE4=It's Hard To Please My Man
TTITLE5=In My Girlish Days
TTITLE6=Me And My Chauffeur Blues
TTITLE7=This Is Your Last Chance
TTITLE8=I'm Not A Bad Gal
TTITLE9=Black Rat Swing
TTITLE10=I Am Sarin' 
TTITLE11=Fashion Plate Daddy
TTITLE12=I'm So Glad
TTITLE13=Hold Me Blues
TTITLE14=Killer Diller Blues
TTITLE15=Daybreak Blues
TTITLE16=Shout The Boogie
TTITLE17=Down Home Girl
TTITLE18=Kidman Blues
TTITLE19=Broken Heart
TTITLE20=Conjurman
TTITLE21=Kissing In The Dark
EXTD=
EXTT0=
EXTT1=
EXTT2=
EXTT3=
EXTT4=
EXTT5=
EXTT6=
EXTT7=
EXTT8=
EXTT9=
EXTT10=
EXTT11=
EXTT12=
EXTT13=
EXTT14=
EXTT15=
EXTT16=
EXTT17=
EXTT18=
EXTT19=
EXTT20=
EXTT21=
PLAYORDER=
